[center]
[img]http://img220.imageshack.us/img220/3677/mv5bmji4ndcymtc3nv5bml5.jpg[/img]

[code]
UUUUUUUU     UUUUUUUU           SSSSSSSSSSSSSSS         MMMMMMMM               MMMMMMMM     
U::::::U     U::::::U         SS:::::::::::::::S        M:::::::M             M:::::::M     
U::::::U     U::::::U        S:::::SSSSSS::::::S        M::::::::M           M::::::::M     
UU:::::U     U:::::UU        S:::::S     SSSSSSS        M:::::::::M         M:::::::::M     
U:::::U     U:::::U         S:::::S                    M::::::::::M       M::::::::::M     
U::::     D:::::U         S:::::S                    M:::::::::::M     M:::::::::::M     
U::::     D:::::U          S::::SSSS                 M:::::::M::::M   M::::M:::::::M     
U::::     D:::::U           SS::::::SSSSS            M::::::M M::::M M::::M M::::::M     
U::::     D:::::U             SSS::::::::SS          M::::::M  M::::M::::M  M::::::M     
U::::     D:::::U                SSSSSS::::S         M::::::M   M:::::::M   M::::::M     
U::::     D:::::U                     S:::::S        M::::::M    M:::::M    M::::::M     
U::::::U   U::::::U                     S:::::S        M::::::M     MMMMM     M::::::M     
U:::::::UUU:::::::U         SSSSSSS     S:::::S        M::::::M               M::::::M     
 UU:::::::::::::UU   ...... S::::::SSSSSS:::::S ...... M::::::M               M::::::M     
   UU:::::::::UU     .::::. S:::::::::::::::SS  .::::. M::::::M               M::::::M     
     UUUUUUUUU       ......  SSSSSSSSSSSSSSS    ...... MMMMMMMM               MMMMMMMM   [/code]


  TT Closer To The Edge 2011 DVDRiP AC3 5.1 XViD - U.S.M


SOURCES:

TT  CLOSER TO THE EDGE 2011 PAL DVDR Legend-Rg

IMDB:

www.imdb.com/title/tt1698010/

Video
ID                               : 0
Format                           : MPEG-4 Visual
Format profile                   : Advanced Simple@L5
Format settings, BVOP            : 2
Format settings, QPel            : No
Format settings, GMC             : No warppoints
Format settings, Matrix          : Default (MPEG)
Muxing mode                      : Packed bitstream
Codec ID                         : XVID
Codec ID/Hint                    : XviD
Duration                         : 1h 39mn
Bit rate                         : 1 522 Kbps
Width                            : 720 pixels
Height                           : 384 pixels
Display aspect ratio             : 1.875
Frame rate                       : 25.000 fps
Color space                      : YUV
Chroma subsampling               : 4:2:0
Bit depth                        : 8 bits
Scan type                        : Progressive
Compression mode                 : Lossy
Bits/(Pixel*Frame)               : 0.220
Stream size                      : 1.06 GiB (77%)
Writing library                  : XviD 64

Audio
ID                               : 1
Format                           : AC-3
Format/Info                      : Audio Coding 3
Mode extension                   : CM (complete main)
Codec ID                         : 2000
Duration                         : 1h 39mn
Bit rate mode                    : Constant
Bit rate                         : 448 Kbps
Channel(s)                       : 6 channels
Channel positions                : Front: L C R, Side: L R, LFE
Sampling rate                    : 48.0 KHz
Bit depth                        : 16 bits
Compression mode                 : Lossy
Stream size                      : 318 MiB (23%)
Alignment                        : Aligned on interleaves
Interleave, duration             : 40 ms (1.00 video frame)
Interleave, preload duration     : 512 ms



WORKDONE:

Straight forward rip really ....made a d2v file off the dvd,then made a script that contained crop,resize,sharpen only.
Audio stripped from dvd then remuxed to the encode.
Check sample for Q.

SCREENIES:

[img]http://img100.imageshack.us/img100/5995/8hw6e.png[/img]
[img]http://img812.imageshack.us/img812/7474/tbpwu.png[/img]
[img]http://img5.imageshack.us/img5/1623/pla8j.png[/img]
[img]http://img7.imageshack.us/img7/2839/hjdag.png[/img]
[img]http://img192.imageshack.us/img192/6848/uhezr.png[/img][/center]